<mxfile host="app.diagrams.net" modified="2021-05-07T23:58:58.073Z" agent="5.0 (Macintosh; Intel Mac OS X 10_14_3) AppleWebKit/537.36 (KHTML, like Gecko) Chrome/90.0.4430.93 Safari/537.36" etag="ydHtiGy2PicjsR234tr5" version="14.6.6" type="github">
  <diagram id="3228e29e-7158-1315-38df-8450db1d8a1d" name="Page-1">
    <mxGraphModel dx="2365" dy="1218" grid="1" gridSize="10" guides="1" tooltips="1" connect="1" arrows="1" fold="1" page="1" pageScale="1" pageWidth="1500" pageHeight="830" background="#EFF1F3" math="0" shadow="1">
      <root>
        <mxCell id="0" />
        <mxCell id="1" parent="0" />
        <mxCell id="WN1ZN86WMK_yOfFNnLNr-8" value="" style="shape=cylinder3;whiteSpace=wrap;html=1;boundedLbl=1;backgroundOutline=1;size=15;dashed=1;strokeWidth=5;fillColor=#fff2cc;strokeColor=#d6b656;" parent="1" vertex="1">
          <mxGeometry x="940" y="270" width="150" height="400" as="geometry" />
        </mxCell>
        <mxCell id="TgtEdNx8PUhki9_reYf2-21545" value="小白" style="rounded=1;fontSize=50;fontFamily=Helvetica;labelBackgroundColor=none;labelBorderColor=none;whiteSpace=wrap;html=1;fillColor=#4A919B;strokeColor=#4A919B;" parent="1" vertex="1">
          <mxGeometry x="190" y="130" width="120" height="77" as="geometry" />
        </mxCell>
        <mxCell id="TgtEdNx8PUhki9_reYf2-21546" value="你在干什么" style="rounded=1;fontSize=50;fontFamily=Helvetica;labelBackgroundColor=none;labelBorderColor=none;whiteSpace=wrap;html=1;fillColor=#4A919B;strokeColor=#4A919B;" parent="1" vertex="1">
          <mxGeometry x="310" y="130" width="330" height="77" as="geometry" />
        </mxCell>
        <mxCell id="QOvhmwXTaC0TyrBMlb9O-1" value="么" style="rounded=1;fontSize=50;fontFamily=Helvetica;fillColor=#FDD276;labelBackgroundColor=none;labelBorderColor=none;whiteSpace=wrap;html=1;strokeColor=#9AC7BF;" parent="1" vertex="1">
          <mxGeometry x="950" y="480" width="120" height="77" as="geometry" />
        </mxCell>
        <mxCell id="QOvhmwXTaC0TyrBMlb9O-2" value="干什" style="rounded=1;fontSize=50;fontFamily=Helvetica;fillColor=#4A919B;labelBackgroundColor=none;labelBorderColor=none;whiteSpace=wrap;html=1;strokeColor=#9AC7BF;" parent="1" vertex="1">
          <mxGeometry x="950" y="352" width="130" height="77" as="geometry" />
        </mxCell>
        <mxCell id="QOvhmwXTaC0TyrBMlb9O-3" value="你在" style="rounded=1;fontSize=50;fontFamily=Helvetica;fillColor=#FDD276;labelBackgroundColor=none;labelBorderColor=none;whiteSpace=wrap;html=1;strokeColor=#9AC7BF;" parent="1" vertex="1">
          <mxGeometry x="950" y="170" width="120" height="77" as="geometry" />
        </mxCell>
        <mxCell id="QOvhmwXTaC0TyrBMlb9O-4" value="小白" style="rounded=1;fontSize=50;fontFamily=Helvetica;fillColor=#4A919B;labelBackgroundColor=none;labelBorderColor=none;whiteSpace=wrap;html=1;strokeColor=#9AC7BF;" parent="1" vertex="1">
          <mxGeometry x="950" y="50" width="120" height="77" as="geometry" />
        </mxCell>
        <mxCell id="WN1ZN86WMK_yOfFNnLNr-1" value="" style="shape=cylinder3;whiteSpace=wrap;html=1;boundedLbl=1;backgroundOutline=1;size=15;dashed=1;strokeWidth=5;fillColor=#fff2cc;strokeColor=#d6b656;" parent="1" vertex="1">
          <mxGeometry x="300" y="280" width="150" height="400" as="geometry" />
        </mxCell>
        <mxCell id="WN1ZN86WMK_yOfFNnLNr-2" value="" style="shape=curlyBracket;whiteSpace=wrap;html=1;rounded=1;strokeWidth=10;direction=north;" parent="1" vertex="1">
          <mxGeometry x="310" y="720" width="140" height="20" as="geometry" />
        </mxCell>
        <mxCell id="WN1ZN86WMK_yOfFNnLNr-4" value="&lt;font style=&quot;font-size: 50px&quot;&gt;网络水管&lt;br&gt;“太窄”&lt;br&gt;过不去&lt;/font&gt;" style="text;html=1;strokeColor=none;fillColor=none;align=center;verticalAlign=middle;whiteSpace=wrap;rounded=0;" parent="1" vertex="1">
          <mxGeometry x="430" y="340" width="290" height="260" as="geometry" />
        </mxCell>
        <mxCell id="WN1ZN86WMK_yOfFNnLNr-6" value="&lt;span style=&quot;font-size: 50px&quot;&gt;数据分片&lt;/span&gt;" style="text;html=1;strokeColor=none;fillColor=none;align=center;verticalAlign=middle;whiteSpace=wrap;rounded=0;" parent="1" vertex="1">
          <mxGeometry x="1140" y="339" width="250" height="260" as="geometry" />
        </mxCell>
        <mxCell id="WN1ZN86WMK_yOfFNnLNr-9" value="" style="shape=singleArrow;direction=east;whiteSpace=wrap;html=1;fillColor=#fff2cc;strokeColor=#d6b656;" parent="1" vertex="1">
          <mxGeometry x="730" y="420" width="163.33" height="98" as="geometry" />
        </mxCell>
        <mxCell id="WN1ZN86WMK_yOfFNnLNr-10" value="&lt;font style=&quot;font-size: 50px&quot;&gt;分包&lt;/font&gt;" style="text;html=1;strokeColor=none;fillColor=none;align=center;verticalAlign=middle;whiteSpace=wrap;rounded=0;" parent="1" vertex="1">
          <mxGeometry x="740" y="400" width="120" height="20" as="geometry" />
        </mxCell>
        <mxCell id="WN1ZN86WMK_yOfFNnLNr-11" value="&lt;font style=&quot;font-size: 50px&quot;&gt;MTU&lt;/font&gt;" style="text;html=1;strokeColor=none;fillColor=none;align=center;verticalAlign=middle;whiteSpace=wrap;rounded=0;" parent="1" vertex="1">
          <mxGeometry x="320" y="760" width="120" height="70" as="geometry" />
        </mxCell>
        <mxCell id="WN1ZN86WMK_yOfFNnLNr-13" value="" style="shape=curlyBracket;whiteSpace=wrap;html=1;rounded=1;strokeWidth=10;direction=north;" parent="1" vertex="1">
          <mxGeometry x="950" y="720" width="140" height="20" as="geometry" />
        </mxCell>
        <mxCell id="WN1ZN86WMK_yOfFNnLNr-14" value="&lt;font style=&quot;font-size: 50px&quot;&gt;MTU&lt;/font&gt;" style="text;html=1;strokeColor=none;fillColor=none;align=center;verticalAlign=middle;whiteSpace=wrap;rounded=0;" parent="1" vertex="1">
          <mxGeometry x="960" y="760" width="120" height="70" as="geometry" />
        </mxCell>
        <mxCell id="WN1ZN86WMK_yOfFNnLNr-15" value="" style="shape=curlyBracket;whiteSpace=wrap;html=1;rounded=1;strokeWidth=10;direction=north;" parent="1" vertex="1">
          <mxGeometry x="960" y="570" width="100" height="20" as="geometry" />
        </mxCell>
        <mxCell id="WN1ZN86WMK_yOfFNnLNr-16" value="&lt;font style=&quot;font-size: 50px&quot;&gt;MSS&lt;br&gt;&lt;/font&gt;" style="text;html=1;strokeColor=none;fillColor=none;align=center;verticalAlign=middle;whiteSpace=wrap;rounded=0;" parent="1" vertex="1">
          <mxGeometry x="950" y="599" width="120" height="70" as="geometry" />
        </mxCell>
      </root>
    </mxGraphModel>
  </diagram>
</mxfile>
